<svg viewBox="0 0 1024 1024" version="1.1" xmlns="http://www.w3.org/2000/svg"  width="200" height="200"><path d="M232.727273 412.70303h-37.236364a24.830448 24.830448 0 0 0-17.553842 7.2704A24.830448 24.830448 0 0 0 170.666667 437.527273v148.945454c0 6.583079 2.615855 12.897745 7.2704 17.553843 4.656097 4.654545 10.970764 7.2704 17.553842 7.2704h37.236364c6.583079 0 12.897745-2.615855 17.553842-7.2704 4.654545-4.656097 7.2704-10.970764 7.2704-17.553843v-148.945454c0-6.583079-2.615855-12.897745-7.2704-17.553843A24.830448 24.830448 0 0 0 232.727273 412.70303z m595.781818-198.593939h-37.236364a24.830448 24.830448 0 0 0-17.553842 7.2704A24.830448 24.830448 0 0 0 766.448485 238.933333v546.133334c0 6.583079 2.615855 12.897745 7.2704 17.553842 4.656097 4.654545 10.970764 7.2704 17.553842 7.2704h37.236364c6.583079 0 12.897745-2.615855 17.553842-7.2704 4.654545-4.656097 7.2704-10.970764 7.2704-17.553842V238.933333c0-6.583079-2.615855-12.897745-7.2704-17.553842A24.830448 24.830448 0 0 0 828.509091 214.109091zM530.618182 114.812121h-37.236364a24.827345 24.827345 0 0 0-24.824242 24.824243v744.727272c0 6.583079 2.615855 12.897745 7.2704 17.553843 4.656097 4.654545 10.970764 7.2704 17.553842 7.2704h37.236364c6.583079 0 12.897745-2.615855 17.553842-7.2704 4.654545-4.656097 7.2704-10.970764 7.2704-17.553843V139.636364a24.827345 24.827345 0 0 0-24.824242-24.824243zM83.781818 462.351515H46.545455a24.827345 24.827345 0 0 0-24.824243 24.824243v49.648484a24.827345 24.827345 0 0 0 24.824243 24.824243h37.236363a24.827345 24.827345 0 0 0 24.824243-24.824243v-49.648484a24.827345 24.827345 0 0 0-24.824243-24.824243z m297.890909-198.593939h-37.236363a24.830448 24.830448 0 0 0-17.553843 7.2704A24.830448 24.830448 0 0 0 319.612121 288.581818v446.836364c0 6.583079 2.615855 12.897745 7.2704 17.553842 4.656097 4.654545 10.970764 7.2704 17.553843 7.2704h37.236363c6.583079 0 12.897745-2.615855 17.553843-7.2704 4.654545-4.656097 7.2704-10.970764 7.2704-17.553842V288.581818c0-6.583079-2.615855-12.897745-7.2704-17.553842A24.830448 24.830448 0 0 0 381.672727 263.757576z m595.781818 198.593939h-37.236363a24.830448 24.830448 0 0 0-17.553843 7.2704A24.830448 24.830448 0 0 0 915.393939 487.175758v49.648484c0 6.583079 2.615855 12.897745 7.2704 17.553843 4.656097 4.654545 10.970764 7.2704 17.553843 7.2704h37.236363c6.583079 0 12.897745-2.615855 17.553843-7.2704 4.654545-4.656097 7.2704-10.970764 7.2704-17.553843v-49.648484c0-6.583079-2.615855-12.897745-7.2704-17.553843A24.830448 24.830448 0 0 0 977.454545 462.351515z m-297.890909-148.945454h-37.236363a24.830448 24.830448 0 0 0-17.553843 7.2704A24.830448 24.830448 0 0 0 617.50303 338.230303v347.539394c0 6.583079 2.615855 12.897745 7.2704 17.553842 4.656097 4.654545 10.970764 7.2704 17.553843 7.2704h37.236363c6.583079 0 12.897745-2.615855 17.553843-7.2704 4.654545-4.656097 7.2704-10.970764 7.2704-17.553842V338.230303c0-6.583079-2.615855-12.897745-7.2704-17.553842A24.830448 24.830448 0 0 0 679.563636 313.406061z" fill="#40648a"></path></svg>
