<svg xmlns="http://www.w3.org/2000/svg" width="100" height="100" viewBox="0 0 1024 1024"><path fill="#40648a" d="M576 64v160q0 27-18.5 45.5T512 288q-27 0-45.5-18.5T448 224V64q0-27 18.5-45.5T512 0q27 0 45.5 18.5T576 64zm129 40q-2 0-4-1t-7.5-2.5q-5.5-1.5-10-.5t-9 5.5Q670 110 668 119q-4 18 5.5 32t20.5 19l11 5q101 53 162 152t61 217q0 172-122 294T512 960q-172 0-294-122T96 544q0-118 61-217t162-152q2 0 5-1.5t10-6.5q7-5 12.5-10.5t9-14Q359 134 358 124q-2-16-11.5-21.5T328 101l-9 3q-129 57-208 176T32 544q0 98 38 186.5t102.5 153Q237 948 325.5 986t186.5 38q98 0 186.5-38t153-102.5Q916 819 954 730.5T992 544q0-145-79-264T705 104z"/></svg>
