<svg viewBox="0 0 1024 1024" xmlns="http://www.w3.org/2000/svg" width="200" height="200"><path fill="#40648a" d="M305.6 225.6c-17.6-17.6-43.2-17.6-59.2 0L19.2 460.8c-25.6 30.4-25.6 72 0 97.6l225.6 235.2c8 8 20.8 12.8 30.4 12.8s20.8-4.8 30.4-12.8c17.6-17.6 17.6-43.2 0-59.2L88 512l217.6-225.6c17.6-17.6 17.6-43.2 0-60.8zm696 235.2L774.4 225.6c-17.6-17.6-43.2-17.6-59.2 0s-17.6 43.2 0 59.2L932.8 512 715.2 737.6c-17.6 17.6-17.6 43.2 0 59.2 8 8 17.6 12.8 30.4 12.8 12.8 0 20.8-4.8 30.4-12.8l225.6-235.2c28.8-28.8 28.8-70.4 0-100.8zM612.8 230.4c-20.8-8-46.4 4.8-56 25.6L382.4 742.4c-8 20.8 4.8 46.4 25.6 56 4.8 0 8 4.8 12.8 4.8 17.6 0 33.6-12.8 38.4-30.4l179.2-491.2c8-20.8-4.8-46.4-25.6-51.2z"/></svg>
