<svg t="1708141637703" class="icon" viewBox="0 0 1024 1024" version="1.1" xmlns="http://www.w3.org/2000/svg" p-id="14485" width="200" height="200"><path d="M684.948211 196.338526a40.421053 40.421053 0 0 1 57.020631 3.934316l164.325053 188.631579a40.421053 40.421053 0 0 1-30.504421 66.991158H148.210526a40.421053 40.421053 0 0 1 0-80.842105h638.760421l-105.957052-121.640421a40.421053 40.421053 0 0 1 3.934316-57.074527zM339.051789 877.082947a40.421053 40.421053 0 0 1-57.020631-3.880421l-164.325053-188.631579a40.421053 40.421053 0 0 1 30.504421-66.991158h727.578948a40.421053 40.421053 0 0 1 0 80.842106H237.029053l105.957052 121.640421a40.421053 40.421053 0 0 1-3.934316 57.074526z" fill="#40648a"></path></svg>
