<svg class="icon" viewBox="0 0 1024 1024" xmlns="http://www.w3.org/2000/svg" width="200" height="200"><path d="M684.948 196.339a40.421 40.421 0 0157.02 3.934l164.326 188.631a40.421 40.421 0 01-30.505 66.992H148.211a40.421 40.421 0 010-80.843h638.76l-105.957-121.64a40.421 40.421 0 013.934-57.074zM339.052 877.083a40.421 40.421 0 01-57.02-3.88L117.705 684.57a40.421 40.421 0 0130.505-66.991h727.578a40.421 40.421 0 010 80.842H237.03l105.957 121.64a40.421 40.421 0 01-3.934 57.075z" fill="#40648a"/></svg>