<svg viewBox="0 0 1024 1024" xmlns="http://www.w3.org/2000/svg" width="200" height="200"><path fill="#40648a" d="M276.208 160L16.32 848h85.536l66.48-176H453.68l66.48 176h85.536L345.76 160h-69.568zM198.56 592l112.448-297.68L423.44 592H198.56zm472.768-236l27.84 74.992c55.232-20.288 164.4-52.256 206.88-11.92C921.328 433.632 928 444.224 928 496v276.512c-51.52 12.56-138.8 23.216-187.456-14.752C686.144 715.36 688 564.24 864 596.56v-81.2c-112-14.416-184.544 17.552-219.44 93.12C586.208 734.768 672 945.376 1008 831.2V481.856c0-124.4-96.864-215.072-336.688-125.856z"/></svg>
