<svg xmlns="http://www.w3.org/2000/svg" width="20.006" height="17.939"><g fill="#40648a"><path d="M10.671 17.93c4.896 0 8.965-4.07 8.965-8.965C19.636 4.06 15.566 0 10.671 0 5.767 0 1.706 4.052 1.706 8.956H3.2c0-4.148 3.323-7.453 7.471-7.453a7.435 7.435 0 017.47 7.462c0 4.148-3.321 7.488-7.47 7.47a7.438 7.438 0 01-6.047-3.093c-.272-.36-.685-.475-1.054-.255-.352.22-.449.703-.15 1.09 1.67 2.241 4.29 3.753 7.251 3.753zM.625 7.269c-.633 0-.79.43-.448.922l1.969 2.795c.29.405.712.396.993 0l1.969-2.803c.334-.484.175-.914-.449-.914z"/><path d="M10.478 3.718a.825.825 0 00-.826.826v4.983c0 .211.061.413.237.633l2.127 2.813c.351.457.826.536 1.257.246.395-.273.421-.774.114-1.204l-3.05-4.14.976 3.006V4.544a.833.833 0 00-.835-.826z"/></g></svg>