<svg class="icon" viewBox="0 0 1024 1024" xmlns="http://www.w3.org/2000/svg" width="200" height="200"><path d="M554.453 128c-212.266 0-383.786 171.947-383.786 384h-128l166.186 166.187 2.987 6.186L384 512H256c0-164.907 133.76-298.667 298.667-298.667S853.333 347.093 853.333 512s-133.76 298.667-298.666 298.667c-82.56 0-157.014-33.707-210.987-87.68l-60.373 60.373C352.64 852.907 448.427 896 554.453 896c212.267 0 384.214-171.947 384.214-384S766.72 128 554.453 128zM512 341.333v213.334L694.613 663.04l30.72-51.84L576 522.667V341.333h-64z" opacity=".9" fill="#40648a"/></svg>