<svg xmlns="http://www.w3.org/2000/svg" width="100" height="100" viewBox="0 0 1024 1024"><path fill="#40648a" d="M651 146q29 11 56.5 26.5T759 208q-22 79 19 150t121 92q5 31 5 62 0 16-1 31l-4 31q-38 10-69.5 34T778 666q-41 71-19 150-49 40-108 62-58-58-139.5-58T372 878q-58-22-107-62 21-79-20-150t-120-92q-5-31-5-62t5-62q79-21 120-92t20-150q49-40 107-62 58 58 140 58 39 0 75.5-15t63.5-43zM512 683q34 0 66-13.5t55-36.5q23-23 36.5-54.5T683 512q0-46-23-85.5T597.5 364Q558 341 512 341q-71 0-121 50t-50 121q0 46 23 85.5t62 62.5q39 23 86 23zM632 81q-19 30-51 48.5T512 148q-25 0-48-8.5T422.5 116Q404 101 392 81q-19 5-36.5 11.5T321 107q-17 8-33.5 17.5t-32 20.5q-15.5 11-30 22.5T198 193q18 30 18 67.5t-19 70Q178 363 146 381t-68 19q-14 55-14 112 0 29 3.5 57T78 624q36 1 68 19t51 50.5q19 32.5 19 70T198 831q83 82 194 112 19-30 50.5-48.5T512 876q25 0 48 8.5t41 23.5q18 15 31 35 111-30 193-112-17-30-17-67.5t19-70q19-32.5 50.5-50.5t67.5-19q15-55 15-112t-15-112q-36-1-67.5-19T827 330.5q-19-32.5-19-70t17-67.5q-82-82-193-112zM512 627q-24 0-45-9t-36.5-24.5Q415 578 406 556.5t-9-44.5q0-31 15.5-57.5t42-42Q481 397 512 397q47 0 81 33.5t34 81.5q0 48-34 81.5T512 627z"/></svg>