<svg xmlns="http://www.w3.org/2000/svg" width="100" height="100" viewBox="0 0 1024 1024"><path fill="#40648a" d="M865 527q-14 0-24 10t-10 24v297q0 3-1.5 5.5t-4 4Q823 869 820 869H145q-3 0-6-1.5t-4.5-4Q133 861 133 858V187q0-3 1.5-6t4.5-4.5q3-1.5 6-1.5h409q14 0 24-10t10-24q0-9-4.5-16.5T571 112q-8-5-17-5H145q-22 0-40 11t-28.5 29Q66 165 66 187v671q0 32 23 55.5t56 23.5h675q32 0 55.5-23.5T899 858V561q0-5-2-10.5t-5-9.5q-3-4-7-7t-9.5-5q-5.5-2-10.5-2zm92-263L786 95q-5-5-11.5-7.5t-13-2.5q-6.5 0-13 2.5T738 95q-10 10-10 24t10 24l114 113q-263 10-407 218-61 88-81 171-1 5-.5 10.5T366 666q2 5 5.5 8.5t8 6.5q4.5 3 9.5 4t8 1q8 0 15-3t12-9.5q5-6.5 6-13.5l7-23q4-14 18.5-47.5t33.5-64q19-30.5 53.5-67.5t76-64.5Q660 366 721.5 346T853 323L731 452q-10 10-9.5 24t10.5 23.5q10 9.5 24 9.5t24-11l178-186q4-4 6-9t3-10q1-5 0-10t-3.5-10q-2.5-5-6.5-9z"/></svg>