<svg viewBox="0 0 1024 1024" version="1.1" xmlns="http://www.w3.org/2000/svg" width="200" height="200"><path fill="#40648a" d="M1024 508.8c0-2.514286 0-5.371429-0.114286-8.685714-0.114286-9.257143-0.342857-19.657143-0.571428-30.742857-0.914286-31.885714-2.514286-63.657143-5.028572-93.6-3.428571-41.257143-8.457143-75.657143-15.314285-101.485715a159.451429 159.451429 0 0 0-112.342858-112.571428c-32.342857-8.685714-95.657143-14.057143-184.8-17.371429-42.4-1.6-87.771429-2.628571-133.142857-3.2-15.885714-0.228571-30.628571-0.342857-43.885714-0.457143h-33.6c-13.257143 0.114286-28 0.228571-43.885714 0.457143-45.371429 0.571429-90.742857 1.6-133.142857 3.2-89.142857 3.428571-152.571429 8.8-184.8 17.371429A159.257143 159.257143 0 0 0 21.028571 274.285714C14.057143 300.114286 9.142857 334.514286 5.714286 375.771429c-2.514286 29.942857-4.114286 61.714286-5.028572 93.6-0.342857 11.085714-0.457143 21.485714-0.571428 30.742857 0 3.314286-0.114286 6.171429-0.114286 8.685714v6.4c0 2.514286 0 5.371429 0.114286 8.685714 0.114286 9.257143 0.342857 19.657143 0.571428 30.742857 0.914286 31.885714 2.514286 63.657143 5.028572 93.6 3.428571 41.257143 8.457143 75.657143 15.314285 101.485715 14.628571 54.742857 57.6 97.942857 112.342858 112.571428 32.228571 8.685714 95.657143 14.057143 184.8 17.371429 42.4 1.6 87.771429 2.628571 133.142857 3.2 15.885714 0.228571 30.628571 0.342857 43.885714 0.457143h33.6c13.257143-0.114286 28-0.228571 43.885714-0.457143 45.371429-0.571429 90.742857-1.6 133.142857-3.2 89.142857-3.428571 152.571429-8.8 184.8-17.371429 54.742857-14.628571 97.714286-57.714286 112.342858-112.571428 6.971429-25.828571 11.885714-60.228571 15.314285-101.485715 2.514286-29.942857 4.114286-61.714286 5.028572-93.6 0.342857-11.085714 0.457143-21.485714 0.571428-30.742857 0-3.314286 0.114286-6.171429 0.114286-8.685714v-6.4z m-82.285714 5.942857c0 2.4 0 5.028571-0.114286 8.114286-0.114286 8.914286-0.342857 18.742857-0.571429 29.371428-0.8 30.4-2.4 60.8-4.8 89.028572-3.085714 36.8-7.428571 66.971429-12.8 87.2-7.085714 26.4-27.885714 47.314286-54.171428 54.285714-24 6.4-84.457143 11.542857-166.628572 14.628572-41.6 1.6-86.4 2.628571-131.085714 3.2-15.657143 0.228571-30.171429 0.342857-43.2 0.342857h-32.685714l-43.2-0.342857c-44.685714-0.571429-89.371429-1.6-131.085714-3.2-82.171429-3.2-142.742857-8.228571-166.628572-14.628572-26.285714-7.085714-47.085714-27.885714-54.171428-54.285714-5.371429-20.228571-9.714286-50.4-12.8-87.2-2.4-28.228571-3.885714-58.628571-4.8-89.028572-0.342857-10.628571-0.457143-20.571429-0.571429-29.371428 0-3.085714-0.114286-5.828571-0.114286-8.114286v-5.485714c0-2.4 0-5.028571 0.114286-8.114286 0.114286-8.914286 0.342857-18.742857 0.571429-29.371428 0.8-30.4 2.4-60.8 4.8-89.028572 3.085714-36.8 7.428571-66.971429 12.8-87.2 7.085714-26.4 27.885714-47.314286 54.171428-54.285714 24-6.4 84.457143-11.542857 166.628572-14.628572 41.6-1.6 86.4-2.628571 131.085714-3.2 15.657143-0.228571 30.171429-0.342857 43.2-0.342857h32.685714l43.2 0.342857c44.685714 0.571429 89.371429 1.6 131.085714 3.2 82.171429 3.2 142.742857 8.228571 166.628572 14.628572 26.285714 7.085714 47.085714 27.885714 54.171428 54.285714 5.371429 20.228571 9.714286 50.4 12.8 87.2 2.4 28.228571 3.885714 58.628571 4.8 89.028572 0.342857 10.628571 0.457143 20.571429 0.571429 29.371428 0 3.085714 0.114286 5.828571 0.114286 8.114286v5.485714zM410.285714 665.142857l265.142857-154.285714-265.142857-152z"></path></svg>
