<svg xmlns="http://www.w3.org/2000/svg" width="100" height="100" viewBox="0 0 1024 1024"><path fill="#8BA0B7" d="M297 356q-29 0-37-15.5t11-39.5l47-62 74-100 18-25 10-12q4-6 9-12 27-37 48-63 9-13 18.5-19T513 1q18-1 38 23t46 58q26 34 53 72l28 37q13 19 27 37 4 6 9 11l8 11 8 12 23 28q23 29 18 48t-35 18q-18 0-46.5 1t-47.5 1q-21 1-26 13t-5 34l1 221-1 22q-2 12-8 21.5t-17 16q-11 6.5-30 6.5h-41q-18 1-44 1-35 0-47-16.5T412 624v-93q-1-28-1-55v-50q0-16-1.5-28.5T405 375q-7-18-29-17-16 0-38.5-1t-40.5-1zm710 541q7 25-2 49-3 7-7.5 14.5t-9.5 14q-5 6.5-12 11.5-9 9-20.5 16t-25.5 12q-14 5-29 7.5t-30 2.5H153q-38 0-67.5-14t-47-34q-17.5-20-23-43.5T17 890l13-31q5-14 13-32l15-35 41-97h120l-45 133h682l-46-133h116l40 97q7 19 15 37l13 32 10 25q3 10 3 11zm0 0z"/></svg>