<?xml version="1.0" encoding="UTF-8"?>
<!--Generator: Apple Native CoreSVG 232.5-->
<!DOCTYPE svg
        PUBLIC "-//W3C//DTD SVG 1.1//EN"
        "http://www.w3.org/Graphics/SVG/1.1/DTD/svg11.dtd">
<svg version="1.1" xmlns="http://www.w3.org/2000/svg" xmlns:xlink="http://www.w3.org/1999/xlink" width="20.0063"
     height="17.9385">
    <g>
        <rect height="17.9385" opacity="0" width="20.0063" x="0" y="0"/>
        <path d="M10.6711 17.9297C15.5666 17.9297 19.636 13.8604 19.636 8.96484C19.636 4.06055 15.5666 0 10.6711 0C5.76681 0 1.70626 4.05176 1.70626 8.95605L3.2004 8.95605C3.2004 4.80762 6.52267 1.50293 10.6711 1.50293C14.8195 1.50293 18.1418 4.81641 18.1418 8.96484C18.1418 13.1133 14.8195 16.4531 10.6711 16.4355C8.16622 16.4268 5.96896 15.2139 4.62423 13.3418C4.35177 12.9814 3.93869 12.8672 3.56955 13.0869C3.21798 13.3066 3.1213 13.79 3.42013 14.1768C5.09005 16.418 7.70919 17.9297 10.6711 17.9297ZM0.625209 7.26855C-0.00760319 7.26855-0.165806 7.69922 0.176967 8.19141L2.14572 10.9863C2.43576 11.3906 2.85763 11.3818 3.13888 10.9863L5.10763 8.18262C5.44162 7.69922 5.28341 7.26855 4.65939 7.26855Z"
              fill="#40648a" fill-opacity="0.85"/>
        <path d="M10.4777 3.71777C10.0207 3.71777 9.65158 4.08691 9.65158 4.54395L9.65158 9.52734C9.65158 9.73828 9.7131 9.94043 9.88888 10.1602L12.0158 12.9727C12.3674 13.4297 12.842 13.5088 13.2727 13.2188C13.6682 12.9463 13.6945 12.4453 13.3869 12.0146L10.3371 7.875L11.3127 10.8809L11.3127 4.54395C11.3127 4.08691 10.9348 3.71777 10.4777 3.71777Z"
              fill="#40648a" fill-opacity="0.85"/>
    </g>
</svg>
