<?xml version="1.0" encoding="utf-8"?>
  <!DOCTYPE svg PUBLIC "-//W3C//DTD SVG 1.1//EN" "http://www.w3.org/Graphics/SVG/1.1/DTD/svg11.dtd">
  <svg version="1.1" xmlns="http://www.w3.org/2000/svg" xmlns:xlink="http://www.w3.org/1999/xlink"   x="0" y="0"   width="100px" height="100px"  viewBox="0 0 1024 1024">
  <path fill="#40648a" d="M576 64L576 224Q576 251 557.5 269.5 539 288 512 288 485 288 466.5 269.5 448 251 448 224L448 224 448 64Q448 37 466.5 18.5 485 0 512 0 539 0 557.5 18.5 576 37 576 64L576 64ZM705 104L705 104Q703 104 701 103 699 102 693.5 100.5 688 99 683.5 100 679 101 674.5 105.5 670 110 668 119L668 119Q664 137 673.5 151 683 165 694 170L694 170 705 175Q806 228 867 327 928 426 928 544L928 544Q928 716 806 838 684 960 512 960 340 960 218 838 96 716 96 544L96 544Q96 426 157 327 218 228 319 175L319 175Q321 175 324 173.5 327 172 334 167 341 162 346.5 156.5 352 151 355.5 142.5 359 134 358 124L358 124Q356 108 346.5 102.5 337 97 328 101L328 101 319 104Q190 161 111 280 32 399 32 544L32 544Q32 642 70 730.5 108 819 172.5 883.5 237 948 325.5 986 414 1024 512 1024 610 1024 698.5 986 787 948 851.5 883.5 916 819 954 730.5 992 642 992 544L992 544Q992 399 913 280 834 161 705 104Z"/>
  </svg>
