<?xml version="1.0" encoding="UTF-8" ?>
<!DOCTYPE svg PUBLIC "-//W3C//DTD SVG 1.1//EN" "http://www.w3.org/Graphics/SVG/1.1/DTD/svg11.dtd">
<svg width="162pt" height="123pt" viewBox="0 0 162 123" version="1.1" xmlns="http://www.w3.org/2000/svg">
<g id="#000000ff">
<path fill="#000000" opacity="1.00" d=" M 15.48 13.28 C 16.72 13.27 17.96 13.25 19.19 13.24 C 19.81 14.90 20.04 17.45 22.29 17.60 C 25.77 17.90 29.30 17.91 32.77 17.59 C 34.99 17.39 35.22 14.88 35.85 13.24 C 65.63 13.26 95.41 13.24 125.19 13.25 C 125.78 14.90 126.03 17.41 128.25 17.59 C 131.74 17.91 135.28 17.90 138.77 17.59 C 140.98 17.40 141.19 14.88 141.84 13.24 C 143.06 13.25 144.28 13.25 145.51 13.26 C 145.52 46.49 145.45 79.71 145.54 112.94 C 144.22 112.96 142.89 112.98 141.57 113.00 C 141.34 110.81 142.09 107.54 139.53 106.50 C 135.75 106.00 131.88 106.15 128.08 106.38 C 125.03 106.86 125.62 110.70 125.41 112.97 C 124.13 112.98 122.86 113.00 121.58 113.02 C 121.86 99.01 121.90 84.98 121.54 70.98 C 121.64 64.32 117.82 58.64 116.02 52.50 C 115.57 53.03 115.13 53.56 114.69 54.09 C 120.24 61.01 121.31 70.40 121.28 78.99 C 121.11 90.34 121.51 101.70 121.08 113.04 C 120.52 112.85 119.40 112.48 118.84 112.29 C 118.62 100.19 118.80 88.08 118.77 75.97 C 119.00 66.54 115.91 56.63 109.14 49.89 C 112.05 54.25 114.76 58.79 116.30 63.85 C 113.40 64.72 110.27 66.18 109.22 69.27 C 108.25 73.07 108.76 77.07 109.16 80.92 C 111.44 79.78 113.72 78.64 116.00 77.49 C 115.59 78.11 115.17 78.74 114.76 79.37 C 114.82 79.92 114.94 81.01 115.00 81.56 L 116.35 79.96 C 116.31 81.36 116.22 84.15 116.18 85.55 C 116.67 83.67 117.14 81.79 117.59 79.90 C 117.96 90.84 117.65 101.80 117.75 112.75 C 115.04 112.75 112.33 112.75 109.63 112.74 C 111.58 102.98 114.94 93.48 116.05 83.58 C 113.18 93.19 111.12 103.04 108.57 112.74 C 105.16 112.78 101.74 112.78 98.32 112.65 C 103.84 102.91 108.43 92.64 114.32 83.14 C 113.91 82.56 113.48 81.99 113.06 81.43 C 112.06 84.91 109.95 87.88 108.28 91.05 C 104.36 98.33 100.30 105.55 96.57 112.93 C 80.05 113.11 63.53 112.91 47.02 113.03 C 44.78 113.07 42.55 112.89 40.35 112.53 C 39.65 102.71 39.59 92.87 39.80 83.02 C 40.59 76.16 39.98 69.04 42.41 62.45 C 46.01 51.47 54.88 42.46 65.73 38.54 C 75.44 34.99 86.14 35.83 96.02 38.21 L 94.20 39.82 C 95.08 39.55 96.83 39.00 97.71 38.73 L 96.81 41.02 C 97.31 40.57 98.32 39.66 98.82 39.21 C 97.75 41.75 100.66 43.16 102.57 43.47 L 102.51 44.51 C 103.14 43.47 103.80 42.44 104.43 41.40 C 102.60 41.27 100.76 41.21 98.93 41.18 L 99.87 39.19 C 89.43 34.63 77.29 33.96 66.45 37.45 C 51.41 42.36 40.26 57.09 39.69 72.92 C 39.13 86.27 38.83 99.69 39.81 113.03 C 38.40 113.01 36.99 112.99 35.58 112.97 C 35.32 110.80 36.09 107.60 33.58 106.52 C 29.78 105.99 25.90 106.16 22.08 106.38 C 19.03 106.87 19.61 110.69 19.43 112.95 C 18.12 112.96 16.80 112.98 15.48 112.99 C 15.51 79.76 15.51 46.52 15.48 13.28 M 21.31 23.31 C 18.22 25.72 19.79 30.57 19.57 34.02 C 19.36 38.17 24.13 37.90 26.98 37.81 C 29.63 37.47 33.53 38.74 35.07 35.83 C 35.88 32.97 35.49 29.93 35.48 27.00 C 35.58 25.39 34.85 23.27 32.97 23.13 C 29.10 22.93 25.15 22.69 21.31 23.31 M 127.34 23.30 C 124.95 24.51 125.63 27.77 125.43 29.98 C 125.67 32.46 124.77 36.11 127.56 37.43 C 131.46 38.00 135.52 37.99 139.42 37.43 C 142.24 36.14 141.36 32.46 141.56 29.98 C 141.40 27.63 142.14 23.65 138.95 23.13 C 135.10 22.92 131.16 22.70 127.34 23.30 M 105.12 44.01 C 106.50 44.97 107.88 46.22 109.55 46.59 C 109.10 45.03 107.45 43.99 106.18 43.08 C 105.35 42.94 105.00 43.25 105.12 44.01 M 21.36 44.44 C 18.12 47.10 19.78 52.22 19.66 55.91 C 20.04 59.59 24.50 58.64 27.06 58.80 C 29.69 58.42 33.67 59.86 35.12 56.87 C 35.83 53.65 35.59 50.27 35.37 46.99 C 35.29 44.83 32.94 43.76 31.04 43.99 C 27.83 44.10 24.45 43.53 21.36 44.44 M 127.35 44.44 C 124.12 47.11 125.77 52.24 125.66 55.94 C 126.05 59.56 130.44 58.65 132.97 58.80 C 135.62 58.41 139.61 59.87 141.11 56.90 C 141.84 53.66 141.58 50.26 141.36 46.97 C 141.26 44.80 138.90 43.76 137.00 43.99 C 133.80 44.10 130.44 43.52 127.35 44.44 M 110.42 47.46 C 110.72 49.07 112.01 50.30 112.88 51.64 C 113.22 51.74 113.89 51.93 114.23 52.03 C 113.70 50.23 112.23 47.99 110.42 47.46 M 21.35 65.42 C 18.75 66.95 19.68 70.50 19.43 73.00 C 19.61 75.18 18.98 78.42 21.45 79.50 C 25.46 79.98 29.58 79.90 33.60 79.54 C 36.10 78.40 35.36 75.19 35.57 72.99 C 35.30 70.48 36.33 66.82 33.56 65.40 C 29.50 65.10 25.40 65.10 21.35 65.42 M 127.39 65.41 C 124.73 66.91 125.68 70.51 125.43 73.02 C 125.61 75.18 124.99 78.33 127.38 79.47 C 131.38 80.01 135.50 79.89 139.53 79.56 C 142.09 78.51 141.36 75.23 141.57 73.04 C 141.30 70.51 142.33 66.88 139.60 65.41 C 135.55 65.10 131.44 65.10 127.39 65.41 M 104.21 82.35 C 86.48 90.70 68.64 98.83 50.88 107.13 C 47.60 108.68 44.17 109.95 41.16 112.01 C 46.48 110.30 51.34 107.49 56.47 105.31 C 73.56 97.30 90.81 89.63 107.76 81.35 C 106.50 81.28 105.34 81.88 104.21 82.35 M 21.49 86.49 C 18.74 87.86 19.68 91.54 19.43 94.03 C 19.55 96.39 19.04 100.10 22.06 100.82 C 25.68 101.16 29.34 101.15 32.96 100.86 C 36.33 99.82 35.37 95.66 35.56 92.98 C 35.37 90.80 36.07 87.62 33.60 86.52 C 29.60 86.02 25.49 86.06 21.49 86.49 M 127.47 86.50 C 124.74 87.87 125.68 91.54 125.43 94.02 C 125.55 96.39 125.03 100.10 128.06 100.82 C 131.67 101.16 135.34 101.15 138.95 100.86 C 142.32 99.82 141.37 95.66 141.56 92.98 C 141.37 90.80 142.08 87.57 139.56 86.51 C 135.57 86.04 131.46 86.05 127.47 86.50 M 89.81 97.22 C 93.26 96.00 95.97 93.42 98.47 90.85 C 95.35 92.61 92.33 94.65 89.81 97.22 M 73.46 108.40 C 74.26 108.44 75.86 108.52 76.65 108.56 C 80.45 105.40 84.59 102.65 88.07 99.14 C 82.42 100.67 78.27 105.26 73.46 108.40 Z" />
</g>
</svg>
