<svg width="216" height="164" viewBox="0 0 162 123" xmlns="http://www.w3.org/2000/svg"><path d="M15.48 13.28c1.24-.01 2.48-.03 3.71-.04.62 1.66.85 4.21 3.1 4.36 3.48.3 7.01.31 10.48-.01 2.22-.2 2.45-2.71 3.08-4.35 29.78.02 59.56 0 89.34.01.59 1.65.84 4.16 3.06 4.34 3.49.32 7.03.31 10.52 0 2.21-.19 2.42-2.71 3.07-4.35 1.22.01 2.44.01 3.67.02.01 33.23-.06 66.45.03 99.68l-3.97.06c-.23-2.19.52-5.46-2.04-6.5-3.78-.5-7.65-.35-11.45-.12-3.05.48-2.46 4.32-2.67 6.59-1.28.01-2.55.03-3.83.05.28-14.01.32-28.04-.04-42.04.1-6.66-3.72-12.34-5.52-18.48-.45.53-.89 1.06-1.33 1.59 5.55 6.92 6.62 16.31 6.59 24.9-.17 11.35.23 22.71-.2 34.05-.56-.19-1.68-.56-2.24-.75-.22-12.1-.04-24.21-.07-36.32.23-9.43-2.86-19.34-9.63-26.08 2.91 4.36 5.62 8.9 7.16 13.96-2.9.87-6.03 2.33-7.08 5.42-.97 3.8-.46 7.8-.06 11.65 2.28-1.14 4.56-2.28 6.84-3.43-.41.62-.83 1.25-1.24 1.88l.24 2.19 1.35-1.6c-.04 1.4-.13 4.19-.17 5.59.49-1.88.96-3.76 1.41-5.65.37 10.94.06 21.9.16 32.85-2.71 0-5.42 0-8.12-.01 1.95-9.76 5.31-19.26 6.42-29.16-2.87 9.61-4.93 19.46-7.48 29.16-3.41.04-6.83.04-10.25-.09 5.52-9.74 10.11-20.01 16-29.51-.41-.58-.84-1.15-1.26-1.71-1 3.48-3.11 6.45-4.78 9.62-3.92 7.28-7.98 14.5-11.71 21.88-16.52.18-33.04-.02-49.55.1-2.24.04-4.47-.14-6.67-.5-.7-9.82-.76-19.66-.55-29.51.79-6.86.18-13.98 2.61-20.57 3.6-10.98 12.47-19.99 23.32-23.91 9.71-3.55 20.41-2.71 30.29-.33l-1.82 1.61c.88-.27 2.63-.82 3.51-1.09l-.9 2.29 2.01-1.81c-1.07 2.54 1.84 3.95 3.75 4.26l-.06 1.04c.63-1.04 1.29-2.07 1.92-3.11-1.83-.13-3.67-.19-5.5-.22l.94-1.99c-10.44-4.56-22.58-5.23-33.42-1.74-15.04 4.91-26.19 19.64-26.76 35.47-.56 13.35-.86 26.77.12 40.11l-4.23-.06c-.26-2.17.51-5.37-2-6.45-3.8-.53-7.68-.36-11.5-.14-3.05.49-2.47 4.31-2.65 6.57-1.31.01-2.63.03-3.95.04.03-33.23.03-66.47 0-99.71m5.83 10.03c-3.09 2.41-1.52 7.26-1.74 10.71-.21 4.15 4.56 3.88 7.41 3.79 2.65-.34 6.55.93 8.09-1.98.81-2.86.42-5.9.41-8.83.1-1.61-.63-3.73-2.51-3.87-3.87-.2-7.82-.44-11.66.18m106.03-.01c-2.39 1.21-1.71 4.47-1.91 6.68.24 2.48-.66 6.13 2.13 7.45 3.9.57 7.96.56 11.86 0 2.82-1.29 1.94-4.97 2.14-7.45-.16-2.35.58-6.33-2.61-6.85-3.85-.21-7.79-.43-11.61.17m-22.22 20.71c1.38.96 2.76 2.21 4.43 2.58-.45-1.56-2.1-2.6-3.37-3.51-.83-.14-1.18.17-1.06.93m-83.76.43c-3.24 2.66-1.58 7.78-1.7 11.47.38 3.68 4.84 2.73 7.4 2.89 2.63-.38 6.61 1.06 8.06-1.93.71-3.22.47-6.6.25-9.88-.08-2.16-2.43-3.23-4.33-3-3.21.11-6.59-.46-9.68.45m105.99 0c-3.23 2.67-1.58 7.8-1.69 11.5.39 3.62 4.78 2.71 7.31 2.86 2.65-.39 6.64 1.07 8.14-1.9.73-3.24.47-6.64.25-9.93-.1-2.17-2.46-3.21-4.36-2.98-3.2.11-6.56-.47-9.65.45m-16.93 3.02c.3 1.61 1.59 2.84 2.46 4.18.34.1 1.01.29 1.35.39-.53-1.8-2-4.04-3.81-4.57M21.35 65.42c-2.6 1.53-1.67 5.08-1.92 7.58.18 2.18-.45 5.42 2.02 6.5 4.01.48 8.13.4 12.15.04 2.5-1.14 1.76-4.35 1.97-6.55-.27-2.51.76-6.17-2.01-7.59-4.06-.3-8.16-.3-12.21.02m106.04-.01c-2.66 1.5-1.71 5.1-1.96 7.61.18 2.16-.44 5.31 1.95 6.45 4 .54 8.12.42 12.15.09 2.56-1.05 1.83-4.33 2.04-6.52-.27-2.53.76-6.16-1.97-7.63-4.05-.31-8.16-.31-12.21 0m-23.18 16.94c-17.73 8.35-35.57 16.48-53.33 24.78-3.28 1.55-6.71 2.82-9.72 4.88 5.32-1.71 10.18-4.52 15.31-6.7 17.09-8.01 34.34-15.68 51.29-23.96-1.26-.07-2.42.53-3.55 1m-82.72 4.14c-2.75 1.37-1.81 5.05-2.06 7.54.12 2.36-.39 6.07 2.63 6.79 3.62.34 7.28.33 10.9.04 3.37-1.04 2.41-5.2 2.6-7.88-.19-2.18.51-5.36-1.96-6.46-4-.5-8.11-.46-12.11-.03m105.98.01c-2.73 1.37-1.79 5.04-2.04 7.52.12 2.37-.4 6.08 2.63 6.8 3.61.34 7.28.33 10.89.04 3.37-1.04 2.42-5.2 2.61-7.88-.19-2.18.52-5.41-2-6.47-3.99-.47-8.1-.46-12.09-.01M89.81 97.22c3.45-1.22 6.16-3.8 8.66-6.37-3.12 1.76-6.14 3.8-8.66 6.37M73.46 108.4l3.19.16c3.8-3.16 7.94-5.91 11.42-9.42-5.65 1.53-9.8 6.12-14.61 9.26z"/></svg>